<svg height="512" viewBox="0 0 512 512" width="512" xmlns="http://www.w3.org/2000/svg"><g id="flat"><rect fill="#676767" height="400" rx="16" width="400" x="24" y="88"/><path d="m408 88h-360v360a16 16 0 0 0 16 16h360v-360a16 16 0 0 0 -16-16z" fill="#4d4d4d"/><rect fill="#a6a6a6" height="400" rx="16" width="400" x="56" y="56"/><path d="m440 56h-360v360a16 16 0 0 0 16 16h360v-360a16 16 0 0 0 -16-16z" fill="#7d7d7d"/><rect fill="#e6e6e6" height="400" rx="16" width="400" x="88" y="24"/><path d="m120 104h352v16h-352z" fill="#ccc"/><circle cx="248" cy="72" fill="#19af19" r="16"/><circle cx="192" cy="72" fill="#ffaf00" r="16"/><circle cx="136" cy="72" fill="#e11919" r="16"/><path d="m239.431 240.569-54.862 54.862a56.57 56.57 0 0 0 -16.569 40 56.569 56.569 0 0 0 56.568 56.569 56.57 56.57 0 0 0 40-16.569l54.862-54.862a56.57 56.57 0 0 0 16.569-40 56.569 56.569 0 0 0 -56.567-56.569 56.57 56.57 0 0 0 -40.001 16.569zm-32.8 80.8 58.746-58.746a22.627 22.627 0 0 1 16-6.627 22.628 22.628 0 0 1 22.623 22.631 22.627 22.627 0 0 1 -6.627 16l-58.746 58.746a22.627 22.627 0 0 1 -16 6.627 22.628 22.628 0 0 1 -22.627-22.627 22.627 22.627 0 0 1 6.627-16z" fill="#f55441"/><path d="m311.431 168.569-54.862 54.862a56.57 56.57 0 0 0 -16.569 40 56.569 56.569 0 0 0 56.568 56.569 56.57 56.57 0 0 0 40-16.569l54.862-54.862a56.57 56.57 0 0 0 16.569-40 56.569 56.569 0 0 0 -56.567-56.569 56.57 56.57 0 0 0 -40.001 16.569zm-32.8 80.8 58.746-58.746a22.627 22.627 0 0 1 16-6.627 22.628 22.628 0 0 1 22.623 22.631 22.627 22.627 0 0 1 -6.627 16l-58.746 58.746a22.627 22.627 0 0 1 -16 6.627 22.628 22.628 0 0 1 -22.627-22.627 22.627 22.627 0 0 1 6.627-16z" fill="#ffaf00"/><path d="m304 336 15.431-15.431a56.57 56.57 0 0 0 16.569-40 56.3 56.3 0 0 0 -8-29.018l-29.363 12.449a22.537 22.537 0 0 1 5.363 14.627 22.627 22.627 0 0 1 -6.627 16l-25.373 25.373z" fill="#f55441"/><path d="m112 112h352v16h-352z" fill="#315a70"/></g></svg>